# xmcd
#
# Track frame offsets: 
#        150
#        19415
#        40352
#        57315
#        74240
#        94765
#        115665
#        136465
#
# Disc length: 2095 seconds
#
# Revision: 0
# Processed by: cddbd v1.5.2PL0 Copyright (c) Steve Scherf et al.
# Submitted via: ExactAudioCopyFreeDBPlugin 1.0
#
DISCID=77082d08
DTITLE=Eugene Pitt and The Jive Five 1995 - Love In The Neighborhood
DYEAR=1995
DGENRE=
TTITLE0=Yesterday (Vocal)
TTITLE1=Yesterday (Inst)
TTITLE2=This I Swear (Vocal)
TTITLE3=This I Swear (Inst)
TTITLE4=Alone Again (Vocal)
TTITLE5=Alone Again (Inst)
TTITLE6=Love In The Neighborhood (Vocal)
TTITLE7=Love In The Neighborhood (Inst)
EXTD=
EXTT0=
EXTT1=
EXTT2=
EXTT3=
EXTT4=
EXTT5=
EXTT6=
EXTT7=
PLAYORDER=
